<svg id="visual" viewBox="0 0 900 600" width="900" height="600" xmlns="http://www.w3.org/2000/svg" xmlns:xlink="http://www.w3.org/1999/xlink" version="1.1"><rect x="0" y="0" width="900" height="600" fill="#afb5ca"></rect><path d="M75 0L72.3 14.3C69.7 28.7 64.3 57.3 64.3 85.8C64.3 114.3 69.7 142.7 72.5 171.2C75.3 199.7 75.7 228.3 75.5 257C75.3 285.7 74.7 314.3 72 343C69.3 371.7 64.7 400.3 64.3 428.8C64 457.3 68 485.7 68 514.2C68 542.7 64 571.3 62 585.7L60 600L0 600L0 585.7C0 571.3 0 542.7 0 514.2C0 485.7 0 457.3 0 428.8C0 400.3 0 371.7 0 343C0 314.3 0 285.7 0 257C0 228.3 0 199.7 0 171.2C0 142.7 0 114.3 0 85.8C0 57.3 0 28.7 0 14.3L0 0Z" fill="#5f6c9e" stroke-linecap="round" stroke-linejoin="miter"></path></svg>